<?xml version="1.0" encoding="utf-8"?>
<!-- Generator: Adobe Illustrator 24.3.0, SVG Export Plug-In . SVG Version: 6.00 Build 0)  -->
<svg version="1.1" id="Calque_1" xmlns="http://www.w3.org/2000/svg" xmlns:xlink="http://www.w3.org/1999/xlink" x="0px" y="0px"
	 viewBox="0 0 1000 100" style="enable-background:new 0 0 1000 100;" xml:space="preserve">
<style type="text/css">
	.st0{fill:#FFFFFF;}
	.st1{fill:#1D1D1B;}
	.st2{fill:#BD1622;}
	.st3{font-family:'TimesNewRomanPSMT';}
	.st4{font-size:33.1902px;}
</style>
<rect class="st0" width="1000" height="100"/>
<g>
	<path class="st1" d="M41.5,36.55c-3.41,0.13-4.75,1.34-5.02,3.55c-0.33,2.21-0.54,4.49-0.54,9.84v7.16
		c0,6.63-0.87,12.38-4.22,16.26c-2.74,3.08-6.89,4.82-11.31,4.82c-3.95,0-7.9-0.87-10.78-3.41c-3.34-2.94-4.75-7.36-4.75-15.12
		v-16.4c0-5.76-0.47-6.29-4.89-6.69v-2.21h18.14v2.21c-4.22,0.4-4.69,0.94-4.69,6.69v16.2c0,9.44,3.01,14.25,9.44,14.25
		c6.62,0,9.84-5.09,9.84-15.93v-7.83c0-5.29-0.27-7.83-0.54-9.77c-0.27-2.28-1.54-3.41-5.96-3.62v-2.21H41.5V36.55z"/>
	<path class="st1" d="M80.11,47.66c-2.54,0.13-3.95,0.73-4.15,2.88c-0.2,1.74-0.4,4.15-0.4,8.63v18.61h-3.48l-18.54-24.1h-0.07v9.97
		c0,4.68,0.2,6.89,0.4,8.7c0.13,1.81,1.61,2.67,4.89,2.88v2.07H46.11v-2.07c2.55-0.13,3.88-1,4.15-2.88c0.2-1.81,0.4-4.02,0.4-8.7
		v-9.37c0-5.48-1-6.29-5.16-6.62v-2.14h11.45l15.6,19.47h0.2v-5.82c0-4.49-0.2-6.9-0.47-8.57c-0.27-2.21-1.61-2.75-5.02-2.94v-2.14
		h12.85V47.66z"/>
	<path class="st1" d="M87.67,77.31V75.1c3.75-0.27,4.15-0.6,4.15-4.75V52.41c0-4.08-0.4-4.42-4.15-4.68v-2.21h16.6v2.14
		c-3.82,0.33-4.22,0.67-4.22,4.88v17.74c0,4.22,0.4,4.55,4.22,4.82v2.21H87.67z"/>
	<path class="st1" d="M146.33,47.66c-3.08,0.47-4.01,1.21-5.82,4.88c-2.28,4.69-6.36,15.26-10.31,25.43h-2.74
		c-3.48-8.83-6.89-17.27-10.51-25.97c-1.4-3.55-2.48-3.95-5.09-4.35v-2.14h16.4v2.14l-1.47,0.26c-1.74,0.34-2.14,0.87-1.27,3.15
		c2.07,5.55,4.02,10.84,6.16,16.33c1.67-4.42,4.62-12.31,5.62-15.59c0.94-2.75,0.74-3.55-1.4-3.95l-1.41-0.2v-2.14h11.85V47.66z"/>
	<path class="st1" d="M182.08,68.67c-0.33,2.48-1.34,7.43-1.67,8.63h-26.77V75.1c4.15-0.27,4.55-0.67,4.55-5.22v-17.2
		c0-4.42-0.34-4.69-4.15-4.95v-2.21h25.1c0.07,1.34,0.27,4.62,0.54,7.83l-2.28,0.13c-0.54-2.01-0.94-2.94-1.67-3.88
		c-0.8-1.07-2.01-1.54-5.09-1.54h-2.41c-1.74,0-1.81,0.27-1.81,2.01v9.31h3.62c3.55,0,3.82-0.34,4.35-3.55h2.21v10.04h-2.21
		c-0.53-3.21-0.8-3.62-4.35-3.62h-3.62v7.09c0,2.88,0.34,4.28,1.14,4.75c0.8,0.54,2.21,0.67,4.49,0.67c2.54,0,4.15-0.33,5.35-1.67
		c0.87-1.07,1.61-2.68,2.41-4.62L182.08,68.67z"/>
	<path class="st1" d="M222.74,77.71h-2.41c-7.09,0-9.17-1.61-10.91-4.22c-1.54-2.41-2.81-5.02-4.08-7.77
		c-0.73-1.47-1.27-2.01-2.81-2.01h-0.8v6.36c0,4.28,0.4,4.75,4.01,5.02v2.21h-16.26V75.1c3.82-0.27,4.22-0.67,4.22-4.95v-17.4
		c0-4.42-0.4-4.82-4.01-5.09v-2.14h16.6c3.82,0,6.36,0.4,8.44,1.6c2.2,1.27,3.61,3.62,3.61,6.56c0,4.01-2.81,6.63-6.22,8.03
		c0.73,1.67,3.01,5.55,4.55,7.89c1.54,2.34,2.54,3.55,3.54,4.62c0.94,0.94,1.94,1.41,2.75,1.67L222.74,77.71z M203.12,61.31
		c2.14,0,3.28-0.27,4.49-1.21c1.21-0.94,2.01-2.88,2.01-5.15c0-5.02-2.88-6.96-5.69-6.96c-1.74,0-2.21,0.47-2.21,2.14v11.18H203.12z
		"/>
	<path class="st1" d="M249.34,54.48c-1.27-4.49-3.81-7.36-7.23-7.36c-2.54,0-4.28,1.87-4.28,4.35c0,2.55,2.07,3.95,4.35,5.09
		l1.87,0.81c5.02,2.28,9.04,4.82,9.04,10.31c0,6.56-5.15,10.44-12.72,10.44c-4.69,0-7.77-1.67-8.97-2.34
		c-0.4-1.27-1.14-4.95-1.54-8.7l2.14-0.54c1.21,3.48,4.48,9.1,9.23,9.1c2.68,0,4.69-1.81,4.69-4.62c0-2.34-1.34-3.82-4.62-5.35
		l-2.21-1c-3.62-1.74-8.1-4.49-8.1-9.77c0-5.89,4.28-10.24,12.04-10.24c3.15,0,6.29,1.13,7.5,1.67c0.27,1.6,0.6,3.88,1,7.63
		L249.34,54.48z"/>
	<path class="st1" d="M260.27,77.31V75.1c3.75-0.27,4.15-0.6,4.15-4.75V52.41c0-4.08-0.4-4.42-4.15-4.68v-2.21h16.6v2.14
		c-3.82,0.33-4.22,0.67-4.22,4.88v17.74c0,4.22,0.4,4.55,4.22,4.82v2.21H260.27z"/>
	<path class="st1" d="M311.9,54.42c-0.8-3.01-1.34-4.15-2.01-5.09c-0.67-0.87-2.01-1.27-4.08-1.27h-2.28v22.02
		c0,4.28,0.4,4.75,4.75,5.02v2.21h-17.6V75.1c4.15-0.27,4.62-0.73,4.62-5.15V48.06h-1.54c-2.88,0-4.01,0.54-4.75,1.47
		c-0.73,0.94-1.34,2.41-2.01,4.88h-2.21c0.2-3.95,0.6-7.63,0.67-10.1h1.47c0.73,1.07,1.21,1.21,2.88,1.21h19.61
		c1.54,0,1.81-0.27,2.54-1.21h1.54c0,2.41,0.27,7.16,0.53,9.97L311.9,54.42z"/>
	<path class="st1" d="M350,68.67c-0.34,2.48-1.34,7.43-1.68,8.63h-26.77V75.1c4.15-0.27,4.55-0.67,4.55-5.22v-17.2
		c0-4.42-0.34-4.69-4.15-4.95v-2.21h25.1c0.07,1.34,0.27,4.62,0.54,7.83l-2.28,0.13c-0.54-2.01-0.94-2.94-1.67-3.88
		c-0.81-1.07-2.01-1.54-5.09-1.54h-2.41c-1.74,0-1.81,0.27-1.81,2.01v9.31h3.62c3.55,0,3.81-0.34,4.35-3.55h2.21v10.04h-2.21
		c-0.54-3.21-0.8-3.62-4.35-3.62h-3.62v7.09c0,2.88,0.34,4.28,1.14,4.75c0.8,0.54,2.21,0.67,4.49,0.67c2.55,0,4.15-0.33,5.35-1.67
		c0.87-1.07,1.6-2.68,2.41-4.62L350,68.67z M335.01,42.7l-2.01-1c1.74-3.21,3.62-6.96,5.22-9.97c1.27-0.6,6.29-0.87,7.56-0.34
		l0.13,0.87L335.01,42.7z"/>
</g>
<g>
	<path class="st1" d="M692.8,39.37c2.6-12.45-10.43-12.45-10.43-12.45H670.7h-11.67l-2.19,12.45l-2.19,12.45h0l-2.32,13.16
		L650,78.14h12.34h12.34c0,0,12.62,1.46,15.67-13.16c2.48-11.89-8.51-13.04-10.67-13.15C683.08,51.63,690.59,49.96,692.8,39.37z
		 M680.54,63.8c-1.37,6.58-7.05,5.92-7.05,5.92h-5.55h-5.55l1.04-5.92l1.04-5.92h5.55h5.55C675.58,57.88,681.78,57.88,680.54,63.8z
		 M682.99,42.45c-1.27,6.09-6.53,5.48-6.53,5.48h-5.14h-5.14l0.97-5.48l0.97-5.48h5.14h5.14C678.4,36.97,684.14,36.97,682.99,42.45z
		"/>
	<path class="st1" d="M717.2,39.39c-12,0.27-20.52,9.67-21.52,19.94c-0.12,1.2-0.11,2.37,0,3.5c0.74,7.85,7.09,15.34,16.36,15.34
		c2.13,0,8-1.06,10.93-4.14c3.37-3.55,3.61-8.27,3.61-8.27s-3.69,4.21-10.86,4.21c-7.18,0-9.51-2.59-10.34-7.49h23.02
		c0.38-1.25,4.44-10.67,0.43-16.81C725.94,41.25,723.19,39.26,717.2,39.39z M720.24,54.45h-13.59c0,0,2.58-7.45,9.84-6.49
		C722.49,48.76,720.24,54.45,720.24,54.45z"/>
	<path class="st1" d="M943.17,39.39c-12,0.27-20.52,9.67-21.52,19.94c-0.12,1.2-0.11,2.37,0,3.5c0.74,7.85,7.09,15.34,16.36,15.34
		c2.13,0,8-1.06,10.93-4.14c3.37-3.55,3.61-8.27,3.61-8.27s-3.69,4.21-10.86,4.21c-7.18,0-9.51-2.59-10.34-7.49h23.02
		c0.38-1.25,4.44-10.67,0.43-16.81C951.91,41.25,949.16,39.26,943.17,39.39z M946.21,54.45h-13.59c0,0,2.58-7.45,9.84-6.49
		C948.46,48.76,946.21,54.45,946.21,54.45z"/>
	<path class="st1" d="M767.86,69.9c-2.8,0-2.52-1.62-2.52-1.62s2.2-11.27,2.51-18.5c0.32-7.24-7.23-9.95-14.34-9.95
		s-16.24,3.22-16.24,8.73c0,5.51,5.52,5.56,5.52,5.56s-1.99-6.02,8.5-6.02c9.02,0,6.63,6.32,6.63,6.32s-23.41-1.72-24.86,13.7
		c-0.58,6.2,4.17,10.05,10.19,10.05c6.02,0,11.73-5.32,11.73-5.32s0.09,5.32,7.87,5.32c7.45,0,11.12-10.35,11.12-10.35
		S770.67,69.9,767.86,69.9z M751.04,69.92c-6.54,2.52-11.37-3.48-4.12-7.25c3.75-1.95,9.77-1.24,9.77-1.24S757.1,67.59,751.04,69.92
		z"/>
	<path class="st1" d="M780.52,41.43h10.46l-3.5,22.99c0,0-0.21,3.15,3.5,3.93c5.18,1.09,6.36-2.72,6.36-2.72l5.1-24.21h10.5
		l-6.78,36.75h-9.73l0.9-5.05c0,0-2.93,5.34-11.53,5.04c-10.51-0.37-9.35-13.69-9.35-13.69L780.52,41.43z"/>
	<path class="st1" d="M856.1,56.48l-10.51-11.96l3.09-5.21h-9.42l-23.88,38.88h9.91l15.49-25.6l6.89,7.81c0,0,3.57,3.29,0.59,7.51
		c-0.84,1.19-1.35,2.55-4.6,2.55c-5.53,0-5.49-6.34-5.49-6.34s-4.4,3.02-4.4,7.37c0,4.35,7.31,6.78,11.69,6.69
		c4.38-0.09,9.06-0.37,13.1-7.2C862.61,64.14,856.1,56.48,856.1,56.48z"/>
	<path class="st1" d="M882.9,40.34c-9.71-0.36-18.82,7.81-20.34,18.26c-1.52,10.44,5.12,19.2,14.83,19.56s18.82-7.81,20.34-18.26
		C899.25,49.46,892.61,40.71,882.9,40.34z M889.82,59.61c-0.84,5.74-5.85,10.24-11.19,10.04c-5.34-0.2-8.99-5.02-8.16-10.76
		s5.85-10.24,11.19-10.04C887,49.05,890.66,53.87,889.82,59.61z"/>
	<path class="st1" d="M919.09,69.11c-0.74,1.47-2.36,2.5-4.25,2.5c-1.64,0-3.08-0.78-3.92-1.95l7.43-47.22h-10.03l-7.49,44.62
		c-0.28,0.81-0.43,1.67-0.43,2.57c0,4.72,4.19,8.54,9.36,8.54c5.17,0,9.36-3.83,9.36-8.54C919.12,69.46,919.1,69.28,919.09,69.11z"
		/>
	<path class="st1" d="M999.97,69.11c-0.74,1.47-2.36,2.5-4.25,2.5c-1.64,0-3.08-0.78-3.92-1.95l7.43-47.22H989.2l-7.49,44.62
		c-0.28,0.81-0.43,1.67-0.43,2.57c0,4.72,4.19,8.54,9.36,8.54c5.17,0,9.36-3.83,9.36-8.54C1000,69.46,999.98,69.28,999.97,69.11z"/>
	<g>
		<path class="st1" d="M959.03,51.69c1.79-1.02,5.61-2.84,6.42,0.31l-3.81,26.18h9.84l4.21-24.73c0.13-0.98,2.17-9.92-4.49-10.59
			c-4.96-0.5-12.21,3.36-12.21,8.28C959,51.33,959.02,51.51,959.03,51.69z"/>
		<path class="st2" d="M977.1,26.33c0,0,2.71,3.57,1.36,8.5c-2.04,7.46-10.04,3.5-8.16-2.18C971.87,27.88,977.1,26.33,977.1,26.33z"
			/>
	</g>
</g>
<text transform="matrix(1 0 0 1 392.5 76.5005)" class="st1 st3 st4">dans la ville de</text>
</svg>
