<svg version="1.1" id="Calque_1" xmlns="http://www.w3.org/2000/svg" x="0" y="0" viewBox="0 0 1000 100" xml:space="preserve"><style>.st1{fill:#1d1d1b}</style><path fill="#fff" d="M0 0h1000v100H0z"/><path class="st1" d="M41.5 36.55c-3.41.13-4.75 1.34-5.02 3.55-.33 2.21-.54 4.49-.54 9.84v7.16c0 6.63-.87 12.38-4.22 16.26-2.74 3.08-6.89 4.82-11.31 4.82-3.95 0-7.9-.87-10.78-3.41-3.34-2.94-4.75-7.36-4.75-15.12v-16.4c0-5.76-.47-6.29-4.89-6.69v-2.21h18.14v2.21c-4.22.4-4.69.94-4.69 6.69v16.2c0 9.44 3.01 14.25 9.44 14.25 6.62 0 9.84-5.09 9.84-15.93v-7.83c0-5.29-.27-7.83-.54-9.77-.27-2.28-1.54-3.41-5.96-3.62v-2.21H41.5v2.21zm38.61 11.11c-2.54.13-3.95.73-4.15 2.88-.2 1.74-.4 4.15-.4 8.63v18.61h-3.48l-18.54-24.1h-.07v9.97c0 4.68.2 6.89.4 8.7.13 1.81 1.61 2.67 4.89 2.88v2.07H46.11v-2.07c2.55-.13 3.88-1 4.15-2.88.2-1.81.4-4.02.4-8.7v-9.37c0-5.48-1-6.29-5.16-6.62v-2.14h11.45l15.6 19.47h.2v-5.82c0-4.49-.2-6.9-.47-8.57-.27-2.21-1.61-2.75-5.02-2.94v-2.14h12.85v2.14zm7.56 29.65V75.1c3.75-.27 4.15-.6 4.15-4.75V52.41c0-4.08-.4-4.42-4.15-4.68v-2.21h16.6v2.14c-3.82.33-4.22.67-4.22 4.88v17.74c0 4.22.4 4.55 4.22 4.82v2.21h-16.6zm58.66-29.65c-3.08.47-4.01 1.21-5.82 4.88-2.28 4.69-6.36 15.26-10.31 25.43h-2.74c-3.48-8.83-6.89-17.27-10.51-25.97-1.4-3.55-2.48-3.95-5.09-4.35v-2.14h16.4v2.14l-1.47.26c-1.74.34-2.14.87-1.27 3.15 2.07 5.55 4.02 10.84 6.16 16.33 1.67-4.42 4.62-12.31 5.62-15.59.94-2.75.74-3.55-1.4-3.95l-1.41-.2v-2.14h11.85v2.15zm35.75 21.01c-.33 2.48-1.34 7.43-1.67 8.63h-26.77v-2.2c4.15-.27 4.55-.67 4.55-5.22v-17.2c0-4.42-.34-4.69-4.15-4.95v-2.21h25.1c.07 1.34.27 4.62.54 7.83l-2.28.13c-.54-2.01-.94-2.94-1.67-3.88-.8-1.07-2.01-1.54-5.09-1.54h-2.41c-1.74 0-1.81.27-1.81 2.01v9.31h3.62c3.55 0 3.82-.34 4.35-3.55h2.21v10.04h-2.21c-.53-3.21-.8-3.62-4.35-3.62h-3.62v7.09c0 2.88.34 4.28 1.14 4.75.8.54 2.21.67 4.49.67 2.54 0 4.15-.33 5.35-1.67.87-1.07 1.61-2.68 2.41-4.62l2.27.2zm40.66 9.04h-2.41c-7.09 0-9.17-1.61-10.91-4.22-1.54-2.41-2.81-5.02-4.08-7.77-.73-1.47-1.27-2.01-2.81-2.01h-.8v6.36c0 4.28.4 4.75 4.01 5.02v2.21h-16.26v-2.2c3.82-.27 4.22-.67 4.22-4.95v-17.4c0-4.42-.4-4.82-4.01-5.09v-2.14h16.6c3.82 0 6.36.4 8.44 1.6 2.2 1.27 3.61 3.62 3.61 6.56 0 4.01-2.81 6.63-6.22 8.03.73 1.67 3.01 5.55 4.55 7.89s2.54 3.55 3.54 4.62c.94.94 1.94 1.41 2.75 1.67l-.22 1.82zm-19.62-16.4c2.14 0 3.28-.27 4.49-1.21 1.21-.94 2.01-2.88 2.01-5.15 0-5.02-2.88-6.96-5.69-6.96-1.74 0-2.21.47-2.21 2.14v11.18h1.4zm46.22-6.83c-1.27-4.49-3.81-7.36-7.23-7.36-2.54 0-4.28 1.87-4.28 4.35 0 2.55 2.07 3.95 4.35 5.09l1.87.81c5.02 2.28 9.04 4.82 9.04 10.31 0 6.56-5.15 10.44-12.72 10.44-4.69 0-7.77-1.67-8.97-2.34-.4-1.27-1.14-4.95-1.54-8.7l2.14-.54c1.21 3.48 4.48 9.1 9.23 9.1 2.68 0 4.69-1.81 4.69-4.62 0-2.34-1.34-3.82-4.62-5.35l-2.21-1c-3.62-1.74-8.1-4.49-8.1-9.77 0-5.89 4.28-10.24 12.04-10.24 3.15 0 6.29 1.13 7.5 1.67.27 1.6.6 3.88 1 7.63l-2.19.52zm10.93 22.83V75.1c3.75-.27 4.15-.6 4.15-4.75V52.41c0-4.08-.4-4.42-4.15-4.68v-2.21h16.6v2.14c-3.82.33-4.22.67-4.22 4.88v17.74c0 4.22.4 4.55 4.22 4.82v2.21h-16.6zm51.63-22.89c-.8-3.01-1.34-4.15-2.01-5.09-.67-.87-2.01-1.27-4.08-1.27h-2.28v22.02c0 4.28.4 4.75 4.75 5.02v2.21h-17.6V75.1c4.15-.27 4.62-.73 4.62-5.15V48.06h-1.54c-2.88 0-4.01.54-4.75 1.47-.73.94-1.34 2.41-2.01 4.88h-2.21c.2-3.95.6-7.63.67-10.1h1.47c.73 1.07 1.21 1.21 2.88 1.21h19.61c1.54 0 1.81-.27 2.54-1.21h1.54c0 2.41.27 7.16.53 9.97l-2.13.14zM350 68.67c-.34 2.48-1.34 7.43-1.68 8.63h-26.77v-2.2c4.15-.27 4.55-.67 4.55-5.22v-17.2c0-4.42-.34-4.69-4.15-4.95v-2.21h25.1c.07 1.34.27 4.62.54 7.83l-2.28.13c-.54-2.01-.94-2.94-1.67-3.88-.81-1.07-2.01-1.54-5.09-1.54h-2.41c-1.74 0-1.81.27-1.81 2.01v9.31h3.62c3.55 0 3.81-.34 4.35-3.55h2.21v10.04h-2.21c-.54-3.21-.8-3.62-4.35-3.62h-3.62v7.09c0 2.88.34 4.28 1.14 4.75.8.54 2.21.67 4.49.67 2.55 0 4.15-.33 5.35-1.67.87-1.07 1.6-2.68 2.41-4.62l2.28.2zM335.01 42.7l-2.01-1c1.74-3.21 3.62-6.96 5.22-9.97 1.27-.6 6.29-.87 7.56-.34l.13.87-10.9 10.44zm357.79-3.33c2.6-12.45-10.43-12.45-10.43-12.45h-23.34l-2.19 12.45-2.19 12.45-2.32 13.16L650 78.14h24.68s12.62 1.46 15.67-13.16c2.48-11.89-8.51-13.04-10.67-13.15 3.4-.2 10.91-1.87 13.12-12.46zM680.54 63.8c-1.37 6.58-7.05 5.92-7.05 5.92h-11.1l1.04-5.92 1.04-5.92h11.1c.01 0 6.21 0 4.97 5.92zm2.45-21.35c-1.27 6.09-6.53 5.48-6.53 5.48h-10.28l.97-5.48.97-5.48h10.28s5.74 0 4.59 5.48zm34.21-3.06c-12 .27-20.52 9.67-21.52 19.94-.12 1.2-.11 2.37 0 3.5.74 7.85 7.09 15.34 16.36 15.34 2.13 0 8-1.06 10.93-4.14 3.37-3.55 3.61-8.27 3.61-8.27s-3.69 4.21-10.86 4.21c-7.18 0-9.51-2.59-10.34-7.49h23.02c.38-1.25 4.44-10.67.43-16.81-2.89-4.42-5.64-6.41-11.63-6.28zm3.04 15.06h-13.59s2.58-7.45 9.84-6.49c6 .8 3.75 6.49 3.75 6.49zm222.93-15.06c-12 .27-20.52 9.67-21.52 19.94-.12 1.2-.11 2.37 0 3.5.74 7.85 7.09 15.34 16.36 15.34 2.13 0 8-1.06 10.93-4.14 3.37-3.55 3.61-8.27 3.61-8.27s-3.69 4.21-10.86 4.21c-7.18 0-9.51-2.59-10.34-7.49h23.02c.38-1.25 4.44-10.67.43-16.81-2.89-4.42-5.64-6.41-11.63-6.28zm3.04 15.06h-13.59s2.58-7.45 9.84-6.49c6 .8 3.75 6.49 3.75 6.49zM767.86 69.9c-2.8 0-2.52-1.62-2.52-1.62s2.2-11.27 2.51-18.5c.32-7.24-7.23-9.95-14.34-9.95s-16.24 3.22-16.24 8.73 5.52 5.56 5.52 5.56-1.99-6.02 8.5-6.02c9.02 0 6.63 6.32 6.63 6.32s-23.41-1.72-24.86 13.7c-.58 6.2 4.17 10.05 10.19 10.05s11.73-5.32 11.73-5.32.09 5.32 7.87 5.32c7.45 0 11.12-10.35 11.12-10.35s-3.3 2.08-6.11 2.08zm-16.82.02c-6.54 2.52-11.37-3.48-4.12-7.25 3.75-1.95 9.77-1.24 9.77-1.24s.41 6.16-5.65 8.49zm29.48-28.49h10.46l-3.5 22.99s-.21 3.15 3.5 3.93c5.18 1.09 6.36-2.72 6.36-2.72l5.1-24.21h10.5l-6.78 36.75h-9.73l.9-5.05s-2.93 5.34-11.53 5.04c-10.51-.37-9.35-13.69-9.35-13.69l4.07-23.04zm75.58 15.05l-10.51-11.96 3.09-5.21h-9.42l-23.88 38.88h9.91l15.49-25.6 6.89 7.81s3.57 3.29.59 7.51c-.84 1.19-1.35 2.55-4.6 2.55-5.53 0-5.49-6.34-5.49-6.34s-4.4 3.02-4.4 7.37 7.31 6.78 11.69 6.69c4.38-.09 9.06-.37 13.1-7.2 4.05-6.84-2.46-14.5-2.46-14.5zm26.8-16.14c-9.71-.36-18.82 7.81-20.34 18.26-1.52 10.44 5.12 19.2 14.83 19.56s18.82-7.81 20.34-18.26c1.52-10.44-5.12-19.19-14.83-19.56zm6.92 19.27c-.84 5.74-5.85 10.24-11.19 10.04-5.34-.2-8.99-5.02-8.16-10.76s5.85-10.24 11.19-10.04c5.34.2 9 5.02 8.16 10.76zm29.27 9.5c-.74 1.47-2.36 2.5-4.25 2.5-1.64 0-3.08-.78-3.92-1.95l7.43-47.22h-10.03l-7.49 44.62a7.83 7.83 0 00-.43 2.57c0 4.72 4.19 8.54 9.36 8.54 5.17 0 9.36-3.83 9.36-8.54 0-.17-.02-.35-.03-.52zm80.88 0c-.74 1.47-2.36 2.5-4.25 2.5-1.64 0-3.08-.78-3.92-1.95l7.43-47.22H989.2l-7.49 44.62a7.83 7.83 0 00-.43 2.57c0 4.72 4.19 8.54 9.36 8.54 5.17 0 9.36-3.83 9.36-8.54 0-.17-.02-.35-.03-.52zm-40.94-17.42c1.79-1.02 5.61-2.84 6.42.31l-3.81 26.18h9.84l4.21-24.73c.13-.98 2.17-9.92-4.49-10.59-4.96-.5-12.21 3.36-12.21 8.28.01.19.03.37.04.55z"/><path d="M977.1 26.33s2.71 3.57 1.36 8.5c-2.04 7.46-10.04 3.5-8.16-2.18 1.57-4.77 6.8-6.32 6.8-6.32z" fill="#bd1622"/><text transform="translate(392.5 76.5)" class="st1" font-size="33.19" font-family="TimesNewRomanPSMT">dans la ville de</text></svg>